<?xml version="1.0" encoding="utf-8"?>
<!-- Generator: Adobe Illustrator 21.0.0, SVG Export Plug-In . SVG Version: 6.00 Build 0)  -->
<svg version="1.1" id="Layer_1" xmlns="http://www.w3.org/2000/svg" xmlns:xlink="http://www.w3.org/1999/xlink" x="0px" y="0px"
	 viewBox="0 0 115 60" style="enable-background:new 0 0 115 60;" xml:space="preserve">
<style type="text/css">
	.st0{fill:url(#SVGID_1_);}
	.st1{fill:url(#SVGID_2_);}
	.st2{fill:url(#SVGID_3_);}
	.st3{fill:url(#SVGID_4_);}
	.st4{fill:url(#SVGID_5_);}
	.st5{fill:url(#SVGID_6_);}
	.st6{fill:url(#SVGID_7_);}
	.st7{fill:url(#SVGID_8_);}
	.st8{fill:url(#SVGID_9_);}
	.st9{fill:url(#SVGID_10_);}
	.st10{fill:url(#SVGID_11_);}
</style>
<g>
	<g>
		<linearGradient id="SVGID_1_" gradientUnits="userSpaceOnUse" x1="19.0401" y1="11.3208" x2="42.8356" y2="35.1163">
			<stop  offset="0" style="stop-color:#0077E9"/>
			<stop  offset="1" style="stop-color:#002CBF"/>
		</linearGradient>
		<path class="st0" d="M20.6,31.4h-5.5l10-25.3c0.5-1.3,1.3-2.3,2.3-2.8c1-0.5,2.2-0.8,3.7-0.8c1.5,0,2.7,0.3,3.7,0.8
			c1,0.5,1.7,1.5,2.2,2.8l9.6,25.3h-5.5L32.4,8.5c-0.3-0.6-0.7-1-1.4-1c-0.7,0-1.2,0.3-1.4,1L20.6,31.4z"/>
		<linearGradient id="SVGID_2_" gradientUnits="userSpaceOnUse" x1="30.8178" y1="32.9538" x2="30.8178" y2="0.8416">
			<stop  offset="0" style="stop-color:#39B54A"/>
			<stop  offset="1" style="stop-color:#00FF00"/>
		</linearGradient>
		<path class="st1" d="M31.1,2.4c1.5,0,2.7,0.3,3.7,0.8c1,0.5,1.7,1.5,2.2,2.8l9.6,25.3h-5.5L32.4,8.5c-0.3-0.6-0.7-1-1.4-1
			c-0.7,0-1.2,0.3-1.4,1l-9,22.9h-5.5l10-25.3c0.5-1.3,1.3-2.3,2.3-2.8C28.3,2.7,29.5,2.4,31.1,2.4 M31.1,0.8c-1.8,0-3.3,0.3-4.5,1
			c-1.3,0.7-2.3,2-2.9,3.6l-10,25.3L12.8,33h2.3h5.5h1.1l0.4-1l9-22.7l8.6,22.7l0.4,1h1.1h5.5h2.3l-0.8-2.1L38.4,5.5
			c-0.6-1.7-1.6-2.9-2.9-3.7C34.3,1.2,32.8,0.8,31.1,0.8L31.1,0.8z"/>
	</g>
	<g>
		<linearGradient id="SVGID_3_" gradientUnits="userSpaceOnUse" x1="49.1674" y1="5.7184" x2="72.0316" y2="28.5826">
			<stop  offset="0" style="stop-color:#0077E9"/>
			<stop  offset="1" style="stop-color:#002CBF"/>
		</linearGradient>
		<path class="st2" d="M63.2,2.9c4.2,0,7.4,1.2,9.5,3.5c2.2,2.3,3.3,5.9,3.3,10.7c0,4.8-1.1,8.4-3.3,10.7c-2.2,2.3-5.4,3.5-9.5,3.5
			h-10c-1.6,0-2.4-0.8-2.4-2.3V5.2c0-1.5,0.8-2.3,2.4-2.3H63.2z M55.8,25.9c0,0.3,0.2,0.5,0.5,0.5h6.9c2.8,0,4.7-0.7,6-2.2
			c1.2-1.5,1.9-3.8,1.9-7.1c0-3.3-0.6-5.6-1.8-7.1c-1.2-1.4-3.2-2.2-6-2.2h-6.9c-0.4,0-0.5,0.2-0.5,0.5V25.9z"/>
		<linearGradient id="SVGID_4_" gradientUnits="userSpaceOnUse" x1="63.3935" y1="32.9538" x2="63.3935" y2="1.3471">
			<stop  offset="0" style="stop-color:#39B54A"/>
			<stop  offset="1" style="stop-color:#00FF00"/>
		</linearGradient>
		<path class="st3" d="M63.2,2.9c4.2,0,7.4,1.2,9.5,3.5c2.2,2.3,3.3,5.9,3.3,10.7c0,4.8-1.1,8.4-3.3,10.7c-2.2,2.3-5.4,3.5-9.5,3.5
			h-10c-1.6,0-2.4-0.8-2.4-2.3V5.2c0-1.5,0.8-2.3,2.4-2.3H63.2 M56.3,26.4h6.9c2.8,0,4.7-0.7,6-2.2c1.2-1.5,1.9-3.8,1.9-7.1
			c0-3.3-0.6-5.6-1.8-7.1c-1.2-1.4-3.2-2.2-6-2.2h-6.9c-0.4,0-0.5,0.2-0.5,0.5v17.5C55.8,26.2,55.9,26.4,56.3,26.4 M63.2,1.3h-10
			c-2.4,0-3.9,1.5-3.9,3.9v23.8c0,2.4,1.5,3.9,3.9,3.9h10c4.6,0,8.2-1.3,10.7-4c2.4-2.6,3.7-6.6,3.7-11.8c0-5.2-1.2-9.2-3.7-11.8
			C71.4,2.7,67.8,1.3,63.2,1.3L63.2,1.3z M57.3,9.5h5.8c2.3,0,3.9,0.5,4.8,1.6c1,1.1,1.5,3.2,1.5,6c0,2.9-0.5,4.9-1.5,6.1
			c-0.9,1.1-2.5,1.6-4.8,1.6h-5.8V9.5L57.3,9.5z"/>
	</g>
	<g>
		<linearGradient id="SVGID_5_" gradientUnits="userSpaceOnUse" x1="81.2363" y1="-0.7984" x2="105.0105" y2="22.9758">
			<stop  offset="0" style="stop-color:#0077E9"/>
			<stop  offset="1" style="stop-color:#002CBF"/>
		</linearGradient>
		<path class="st4" d="M83,2.9l8.6,22.9c0.3,0.6,0.7,1,1.4,1c0.6,0,1.1-0.3,1.4-1l9.1-22.9h5.5L99,28.2c-0.5,1.3-1.3,2.3-2.3,2.8
			c-1,0.5-2.2,0.8-3.7,0.8c-1.4,0-2.6-0.3-3.6-0.8c-1-0.5-1.8-1.5-2.3-2.9L77.5,2.9H83z"/>
		<linearGradient id="SVGID_6_" gradientUnits="userSpaceOnUse" x1="93.2765" y1="33.4593" x2="93.2765" y2="1.3471">
			<stop  offset="0" style="stop-color:#39B54A"/>
			<stop  offset="1" style="stop-color:#00FF00"/>
		</linearGradient>
		<path class="st5" d="M109,2.9L99,28.2c-0.5,1.3-1.3,2.3-2.3,2.8c-1,0.5-2.2,0.8-3.7,0.8c-1.4,0-2.6-0.3-3.6-0.8
			c-1-0.5-1.8-1.5-2.3-2.9L77.5,2.9H83l8.6,22.9c0.3,0.6,0.7,1,1.4,1c0.6,0,1.1-0.3,1.4-1l9.1-22.9H109 M111.3,1.3H109h-5.5h-1.1
			l-0.4,1L93,25L84.5,2.4l-0.4-1H83h-5.5h-2.3L76,3.5l9.5,25.3c0.7,1.8,1.7,3,3.1,3.7c1.2,0.6,2.7,0.9,4.4,0.9c1.8,0,3.3-0.3,4.5-1
			c1.3-0.7,2.3-2,2.9-3.6l10-25.3L111.3,1.3L111.3,1.3z"/>
	</g>
</g>
<g>
	<linearGradient id="SVGID_7_" gradientUnits="userSpaceOnUse" x1="14.7941" y1="59.3372" x2="14.7941" y2="38.8563">
		<stop  offset="0" style="stop-color:#A4272D"/>
		<stop  offset="1" style="stop-color:#FF294F"/>
	</linearGradient>
	<path class="st6" d="M10.6,38.9h14c1,0,1.7,0.3,2.3,0.8c0.5,0.5,0.8,1.2,0.8,2.1c0,0.6-0.1,1.2-0.4,1.8L25,48.8
		c-0.5,1.3-1.4,2.4-2.5,3.3c-1.1,0.9-2.3,1.4-3.6,1.4h-9l-2.5,5.9H1.9L10.6,38.9z M19.1,48.8c0.2,0,0.4-0.1,0.5-0.4l1.8-4.2
		c0,0,0-0.1,0-0.1c0-0.2-0.1-0.2-0.2-0.2h-7.1L12,48.8H19.1z"/>
	<linearGradient id="SVGID_8_" gradientUnits="userSpaceOnUse" x1="35.6019" y1="59.3372" x2="35.6019" y2="38.8563">
		<stop  offset="0" style="stop-color:#A4272D"/>
		<stop  offset="1" style="stop-color:#FF294F"/>
	</linearGradient>
	<path class="st7" d="M31.3,38.9h14.2c1.3,0,2.2,0.5,2.7,1.4c0.5,0.9,0.5,2-0.1,3.3L46.3,48c-0.5,1.3-1.4,2.4-2.5,3.3
		c-1.1,0.9-2.5,1.4-4.1,1.4h-0.1l2.5,6.7h-6.4l-1.9-6.7H31l-2.8,6.7h-5.6L31.3,38.9z M40.4,47.9c0.2,0,0.4-0.1,0.5-0.4l1.4-3.4
		c0.1-0.2,0-0.4-0.2-0.4h-7.4L33,47.9H40.4z"/>
	<linearGradient id="SVGID_9_" gradientUnits="userSpaceOnUse" x1="58.5763" y1="59.3372" x2="58.5763" y2="38.8563">
		<stop  offset="0" style="stop-color:#A4272D"/>
		<stop  offset="1" style="stop-color:#FF294F"/>
	</linearGradient>
	<path class="st8" d="M49.3,59.3c-1.3,0-2.2-0.5-2.7-1.4c-0.5-0.9-0.5-2,0.1-3.3l4.7-11.2c0.6-1.3,1.4-2.4,2.5-3.3
		c1.1-0.9,2.3-1.4,3.6-1.4h10.5c1.3,0,2.2,0.5,2.7,1.4c0.5,0.9,0.5,2-0.1,3.3l-4.7,11.2c-0.6,1.3-1.4,2.4-2.5,3.3
		c-1.1,0.9-2.3,1.4-3.6,1.4H49.3z M64.7,44.2c0.1-0.2,0-0.4-0.2-0.4h-7.4c-0.2,0-0.4,0.1-0.5,0.4L52.4,54c-0.1,0.2,0,0.4,0.2,0.4H60
		c0.2,0,0.4-0.1,0.5-0.4L64.7,44.2z"/>
	<linearGradient id="SVGID_10_" gradientUnits="userSpaceOnUse" x1="80.0759" y1="59.3372" x2="80.0759" y2="38.8563">
		<stop  offset="0" style="stop-color:#A4272D"/>
		<stop  offset="1" style="stop-color:#FF294F"/>
	</linearGradient>
	<path class="st9" d="M75.9,38.9h14c1,0,1.7,0.3,2.3,0.8c0.5,0.5,0.8,1.2,0.8,2.1c0,0.6-0.1,1.2-0.4,1.8l-2.2,5.3
		c-0.5,1.3-1.4,2.4-2.5,3.3c-1.1,0.9-2.3,1.4-3.6,1.4h-9l-2.5,5.9h-5.6L75.9,38.9z M84.4,48.8c0.2,0,0.4-0.1,0.5-0.4l1.8-4.2
		c0,0,0-0.1,0-0.1c0-0.2-0.1-0.2-0.2-0.2h-7.1l-2.1,4.9H84.4z"/>
	<linearGradient id="SVGID_11_" gradientUnits="userSpaceOnUse" x1="101.3585" y1="59.3372" x2="101.3585" y2="38.8563">
		<stop  offset="0" style="stop-color:#A4272D"/>
		<stop  offset="1" style="stop-color:#FF294F"/>
	</linearGradient>
	<path class="st10" d="M96,52.9L95.5,54c-0.1,0.2,0,0.4,0.2,0.4h6.8c0.2,0,0.4-0.1,0.5-0.4l1-2.3c0.1-0.2,0-0.4-0.2-0.4h-8.1
		c-1.3,0-2.2-0.5-2.7-1.4c-0.5-0.9-0.5-2,0.1-3.3l1.3-3.2c0.5-1.3,1.4-2.4,2.5-3.3c1.1-0.9,2.3-1.4,3.6-1.4h9.9
		c1.3,0,2.2,0.5,2.7,1.4c0.5,0.9,0.5,2-0.1,3.3l-0.8,1.8h-5.6l0.5-1.2c0.1-0.2,0-0.4-0.2-0.4h-6.8c-0.2,0-0.4,0.1-0.5,0.4l-1,2.3
		c-0.1,0.2,0,0.4,0.2,0.4h8.1c1.3,0,2.2,0.5,2.7,1.4c0.5,0.9,0.5,2-0.1,3.3l-1.3,3.2c-0.6,1.3-1.4,2.4-2.4,3.3
		c-1,0.9-2.2,1.4-3.5,1.4H92.3c-1.3,0-2.2-0.5-2.7-1.4c-0.5-0.9-0.5-2,0.1-3.3l0.8-1.8H96z"/>
</g>
</svg>
